<?xml version="1.0" encoding="UTF-8"?>
<svg xmlns="http://www.w3.org/2000/svg" xmlns:xlink="http://www.w3.org/1999/xlink" viewBox="0 0 48 48" width="48px" height="48px">
<g id="surface7437119">
<path style=" stroke:none;fill-rule:nonzero;fill:rgb(0%,100%,100%);fill-opacity:1;" d="M 24 4.800781 C 13.398438 4.800781 4.800781 13.398438 4.800781 24 C 4.800781 34.601562 13.398438 43.199219 24 43.199219 C 34.601562 43.199219 43.199219 34.601562 43.199219 24 C 43.199219 13.398438 34.601562 4.800781 24 4.800781 Z M 16.792969 13.445312 C 18.140625 13.445312 19.039062 14.34375 19.039062 15.539062 C 19.039062 16.734375 18.140625 17.632812 16.644531 17.632812 C 15.296875 17.636719 14.398438 16.734375 14.398438 15.539062 C 14.398438 14.34375 15.296875 13.445312 16.792969 13.445312 Z M 19.199219 32 L 14.398438 32 L 14.398438 19.199219 L 19.199219 19.199219 Z M 35.199219 32 L 30.679688 32 L 30.679688 25.003906 C 30.679688 23.070312 29.476562 22.625 29.027344 22.625 C 28.574219 22.625 27.066406 22.921875 27.066406 25.003906 C 27.066406 25.300781 27.066406 32 27.066406 32 L 22.398438 32 L 22.398438 19.199219 L 27.070312 19.199219 L 27.070312 20.984375 C 27.671875 19.945312 28.875 19.199219 31.132812 19.199219 C 33.394531 19.199219 35.199219 20.984375 35.199219 25.003906 Z M 35.199219 32 "/>
</g>
</svg>
