<?xml version="1.0" encoding="UTF-8"?>
<svg xmlns="http://www.w3.org/2000/svg" xmlns:xlink="http://www.w3.org/1999/xlink" viewBox="0 0 48 48" width="48px" height="48px">
<g id="surface7402189">
<path style=" stroke:none;fill-rule:nonzero;fill:rgb(0%,100%,100%);fill-opacity:1;" d="M 44 24 C 44 35.046875 35.046875 44 24 44 C 12.953125 44 4 35.046875 4 24 C 4 12.953125 12.953125 4 24 4 C 35.046875 4 44 12.953125 44 24 Z M 44 24 "/>
<path style=" stroke:none;fill-rule:nonzero;fill:rgb(100%,100%,100%);fill-opacity:1;" d="M 35.066406 22.035156 L 35.066406 21.074219 L 33.246094 21.074219 L 32.445312 21.0625 C 31.761719 21.0625 31.292969 21.511719 31.109375 22.035156 L 31.109375 21.078125 L 29.070312 21.078125 L 29.070312 27.300781 L 31.109375 27.300781 L 31.109375 23.898438 C 31.109375 23.28125 31.613281 22.777344 32.234375 22.777344 L 33.027344 22.777344 L 33.027344 27.300781 L 35.066406 27.300781 L 35.066406 23.898438 C 35.066406 23.28125 35.570312 22.777344 36.191406 22.777344 L 37.203125 22.777344 L 37.203125 21.078125 L 36.402344 21.0625 C 35.71875 21.0625 35.25 21.511719 35.066406 22.035156 Z M 20.558594 21.207031 L 19.464844 24.804688 L 18.371094 21.207031 L 16.335938 21.207031 L 18.550781 27.429688 L 20.386719 27.429688 L 22.597656 21.207031 Z M 12.230469 21.207031 L 12.230469 20.789062 C 12.230469 20.425781 12.523438 20.132812 12.886719 20.132812 L 14.175781 20.132812 L 14.175781 18.425781 L 12.40625 18.425781 C 11.183594 18.425781 10.191406 19.417969 10.191406 20.644531 L 10.191406 21.207031 L 9 21.207031 L 9 22.855469 L 10.191406 22.855469 L 10.191406 27.429688 L 12.230469 27.429688 L 12.230469 22.855469 L 14.175781 22.855469 L 14.175781 27.429688 L 16.214844 27.429688 L 16.214844 21.207031 Z M 25.425781 21.121094 L 25.175781 21.121094 C 23.507812 21.121094 22.152344 22.476562 22.152344 24.144531 L 22.152344 24.488281 C 22.152344 26.15625 23.507812 27.511719 25.175781 27.511719 L 25.726562 27.511719 C 26.871094 27.511719 27.851562 26.804688 28.253906 25.808594 L 26.453125 25.28125 C 26.453125 25.28125 26.238281 25.898438 25.488281 25.898438 C 24.640625 25.898438 24.195312 25.433594 24.136719 24.910156 L 24.136719 24.90625 C 24.132812 24.867188 24.128906 24.828125 24.128906 24.789062 L 28.449219 24.789062 L 28.449219 24.148438 C 28.449219 22.476562 27.09375 21.121094 25.425781 21.121094 Z M 24.128906 23.589844 C 24.15625 23.03125 24.613281 22.585938 25.179688 22.585938 L 25.375 22.585938 C 25.941406 22.585938 26.402344 23.03125 26.425781 23.589844 Z M 24.128906 23.589844 "/>
<path style=" stroke:none;fill-rule:nonzero;fill:rgb(14.901961%,19.607843%,21.960784%);fill-opacity:1;" d="M 40.121094 26.304688 C 40.121094 27.003906 39.550781 27.574219 38.851562 27.574219 C 38.152344 27.574219 37.582031 27.003906 37.582031 26.304688 C 37.582031 25.605469 38.152344 25.035156 38.851562 25.035156 C 39.550781 25.035156 40.121094 25.605469 40.121094 26.304688 Z M 40.121094 26.304688 "/>
</g>
</svg>
